#!OML:ASF H:\LiuWeirdWalks\Patient Classification 1\Patient 1\Session 1\male.ASF
:FULLY-SPECIFIED
:DEGREES
259
root 1.49917 17.2255 -13.3666 -4.10311 -1.30796 -4.24536
lowerback 15.718 1.23622 -1.437
upperback -0.524713 1.62515 2.59836
thorax -9.54084 0.924315 3.24582
lowerneck -22.7516 1.70637 5.42986
upperneck 27.1576 1.69681 -4.09765
head 12.9619 0.748553 -2.21191
rclavicle -2.25186e-015 1.68967e-015
rhumerus -48.3085 -5.05986 -73.3963
rradius 41.8763
rwrist -14.8177
rhand -19.8871 1.26934
rfingers 7.12502
rthumb 6.44881 -28.6125
lclavicle -2.25186e-015 1.68967e-015
lhumerus -39.6624 2.34041 73.5473
lradius 36.5874
lwrist 7.69985
lhand -15.5294 -1.52613
lfingers 7.12502
lthumb 10.6541 28.1838
rfemur -23.2437 -7.72041 19.097
rtibia 84.3497
rfoot -10.8237 -11.8441
rtoes -11.8206
lfemur -18.2705 -8.37193 -23.8503
ltibia 45.5604
lfoot -16.3421 22.247
ltoes 0.500774
260
root 1.51547 17.2685 -13.2612 -3.76068 -1.22485 -4.13191
lowerback 15.6196 1.1722 -1.38489
upperback -0.608092 1.5546 2.63117
thorax -9.57105 0.890349 3.26963
lowerneck -22.8078 1.71288 5.45103
upperneck 27.0768 1.74342 -4.25686
head 12.9448 0.747724 -2.2682
rclavicle 1.83037e-014 3.32964e-014
rhumerus -48.2386 -4.33694 -73.9245
rradius 42.1632
rwrist -14.0753
rhand -19.6164 1.64818
rfingers 7.12502
rthumb 6.71016 -28.2255
lclavicle 1.83037e-014 3.32964e-014
lhumerus -39.372 1.76613 74.4051
lradius 36.8519
lwrist 7.86464
lhand -15.5782 -2.05663
lfingers 7.12502
lthumb 10.6071 27.6557
rfemur -23.9859 -7.64863 19.0079
rtibia 83.8836
rfoot -10.689 -11.1371
rtoes -12.1253
lfemur -17.8053 -8.75112 -24.076
ltibia 44.7838
lfoot -16.5923 22.4445
ltoes 0.0120414
261
root 1.53107 17.3118 -13.1562 -3.43849 -1.19465 -4.0429
lowerback 15.5324 1.13542 -1.32666
upperback -0.663054 1.52203 2.67684
thorax -9.57932 0.874022 3.2946
lowerneck -22.8637 1.72369 5.47869
upperneck 26.947 1.78913 -4.4062
head 12.9077 0.748256 -2.3208
rclavicle 5.90763e-015 -2.98177e-015
rhumerus -48.1602 -3.68957 -74.4008
rradius 42.4893
rwrist -13.4702
rhand -19.3564 1.93314
rfingers 7.12502
rthumb 6.96109 -27.9324
lclavicle 5.90763e-015 -2.98177e-015
lhumerus -39.067 1.17592 75.2647
lradius 37.1534
lwrist 8.06195
lhand -15.7054 -2.6061
lfingers 7.12502
lthumb 10.4844 27.1125
rfemur -24.6346 -7.46045 18.9151
rtibia 83.4227
rfoot -10.4981 -10.4727
rtoes -12.3877
lfemur -17.3133 -8.98488 -24.252
ltibia 43.9886
lfoot -16.8261 22.5793
ltoes -0.491145
262
root 1.54523 17.354 -13.0528 -3.13845 -1.21051 -3.98709
lowerback 15.4756 1.11939 -1.26652
upperback -0.695691 1.5185 2.73922
thorax -9.58289 0.871658 3.3295
lowerneck -22.9229 1.72946 5.4898
upperneck 26.7861 1.82341 -4.527
head 12.8576 0.745811 -2.36069
rclavicle 6.27414e-015 -2.92213e-014
rhumerus -48.0663 -3.1102 -74.8277
rradius 42.8308
rwrist -13.0515
rhand -19.1262 2.08035
rfingers 7.12502
rthumb 7.18334 -27.7777
lclavicle 6.27414e-015 -2.92213e-014
lhumerus -38.7547 0.59121 76.1084
lradius 37.4736
lwrist 8.23949
lhand -15.895 -3.11802
lfingers 7.12502
lthumb 10.3015 26.6097
rfemur -25.1922 -7.1653 18.8353
rtibia 82.9797
rfoot -10.269 -9.87486
rtoes -12.4999
lfemur -16.806 -9.08151 -24.3659
ltibia 43.1852
lfoot -17.0343 22.6389
ltoes -0.938914
263
root 1.55823 17.3947 -12.9505 -2.8665 -1.24829 -3.92653
lowerback 15.4659 1.11956 -1.23408
upperback -0.72131 1.53109 2.79965
thorax -9.60763 0.878492 3.37408
lowerneck -22.9707 1.73166 5.49192
upperneck 26.6292 1.8447 -4.61058
head 12.8058 0.742118 -2.38676
rclavicle 1.0343e-014 -2.5842e-015
rhumerus -47.9872 -2.60663 -75.2069
rradius 43.1735
rwrist -12.8139
rhand -18.9012 2.15103
rfingers 7.12502
rthumb 7.40052 -27.6995
lclavicle 1.0343e-014 -2.5842e-015
lhumerus -38.463 0.000767118 76.9133
lradius 37.8058
lwrist 8.37496
lhand -16.0947 -3.57678
lfingers 7.12502
lthumb 10.1088 26.1604
rfemur -25.6501 -6.81661 18.7173
rtibia 82.5641
rfoot -10.0114 -9.3592
rtoes -12.3496
lfemur -16.2785 -9.07071 -24.469
ltibia 42.3787
lfoot -17.1992 22.6421
ltoes -1.31762
264
root 1.57031 17.4334 -12.8494 -2.6123 -1.29634 -3.86052
lowerback 15.4929 1.12994 -1.21796
upperback -0.736571 1.55336 2.85223
thorax -9.64282 0.890528 3.41698
lowerneck -23.0245 1.7404 5.50151
upperneck 26.453 1.8653 -4.67471
head 12.7475 0.74149 -2.40616
rclavicle -1.72694e-015 -6.16232e-015
rhumerus -47.9016 -2.18367 -75.5458
rradius 43.5082
rwrist -12.7515
rhand -18.7069 2.13409
rfingers 7.12502
rthumb 7.58803 -27.7098
lclavicle -1.72694e-015 -6.16232e-015
lhumerus -38.1682 -0.597476 77.671
lradius 38.1416
lwrist 8.47339
lhand -16.2787 -3.91257
lfingers 7.12502
lthumb 9.93124 25.8332
rfemur -26.0246 -6.44459 18.5641
rtibia 82.1828
rfoot -9.75151 -8.96242
rtoes -12.2412
lfemur -15.7459 -8.97769 -24.5658
ltibia 41.5783
lfoot -17.3314 22.5812
ltoes -1.59233
265
root 1.58223 17.4695 -12.7489 -2.3688 -1.33731 -3.78316
lowerback 15.5472 1.14192 -1.21215
upperback -0.752884 1.57479 2.89275
thorax -9.69472 0.902506 3.45275
lowerneck -23.0873 1.73809 5.49649
upperneck 26.2932 1.86879 -4.71774
head 12.6963 0.734792 -2.41823
rclavicle 1.38031e-014 1.82882e-014
rhumerus -47.8445 -1.82068 -75.8491
rradius 43.852
rwrist -12.8205
rhand -18.5343 2.0535
rfingers 7.12502
rthumb 7.75462 -27.7843
lclavicle 1.38031e-014 1.82882e-014
lhumerus -37.899 -1.2027 78.378
lradius 38.4982
lwrist 8.56041
lhand -16.4094 -4.11995
lfingers 7.12502
lthumb 9.80515 25.6318
rfemur -26.3227 -6.0927 18.3654
rtibia 81.8402
rfoot -9.48612 -8.69961
rtoes -12.093
lfemur -15.2194 -8.82755 -24.6705
ltibia 40.7917
lfoot -17.4089 22.474
ltoes -1.75519
266
root 1.59402 17.503 -12.6485 -2.12496 -1.34317 -3.69565
lowerback 15.5909 1.1474 -1.20473
upperback -0.75199 1.58591 2.91724
thorax -9.72018 0.908453 3.47247
lowerneck -23.1988 1.72742 5.46968
upperneck 26.16 1.85896 -4.73615
head 12.6643 0.723084 -2.42011
rclavicle 2.83268e-015 1.43125e-014
rhumerus -47.7739 -1.53555 -76.1187
rradius 44.2007
rwrist -12.9916
rhand -18.3719 1.95622
rfingers 7.12502
rthumb 7.9114 -27.8757
lclavicle 2.83268e-015 1.43125e-014
lhumerus -37.6159 -1.81015 79.0291
lradius 38.8763
lwrist 8.60329
lhand -16.4648 -4.23957
lfingers 7.12502
lthumb 9.75171 25.5147
rfemur -26.5564 -5.80302 18.127
rtibia 81.5381
rfoot -9.22045 -8.59404
rtoes -12.0172
lfemur -14.7141 -8.65945 -24.7843
ltibia 40.03
lfoot -17.4131 22.3271
ltoes -1.81023
267
root 1.60538 17.5334 -12.5483 -1.86323 -1.30259 -3.61748
lowerback 15.624 1.13857 -1.17669
upperback -0.748138 1.58072 2.93139
thorax -9.7342 0.905041 3.473
lowerneck -23.328 1.73347 5.49701
upperneck 25.993 1.86525 -4.80236
head 12.6245 0.717048 -2.44623
rclavicle -6.85807e-015 -2.82274e-014
rhumerus -47.7072 -1.30318 -76.3684
rradius 44.5744
rwrist -13.2262
rhand -18.2598 1.81675
rfingers 7.12502
rthumb 8.0196 -28.0111
lclavicle -6.85807e-015 -2.82274e-014
lhumerus -37.3303 -2.42357 79.6271
lradius 39.2879
lwrist 8.65998
lhand -16.4336 -4.25665
lfingers 7.12502
lthumb 9.78188 25.4962
rfemur -26.7489 -5.59045 17.8803
rtibia 81.2769
rfoot -8.94515 -8.6631
rtoes -11.8736
lfemur -14.2579 -8.48515 -24.8821
ltibia 39.3075
lfoot -17.3382 22.1431
ltoes -1.76651
268
root 1.61603 17.5604 -12.4484 -1.56655 -1.19305 -3.5341
lowerback 15.6395 1.1116 -1.14676
upperback -0.75025 1.55089 2.93557
thorax -9.74244 0.889445 3.4676
lowerneck -23.4802 1.74179 5.55017
upperneck 25.8093 1.87131 -4.89589
head 12.5832 0.709396 -2.48704
rclavicle -9.86469e-015 3.97569e-016
rhumerus -47.6402 -1.12319 -76.5916
rradius 44.9639
rwrist -13.4736
rhand -18.2039 1.67126
rfingers 7.12502
rthumb 8.07355 -28.1545
lclavicle -9.86469e-015 3.97569e-016
lhumerus -37.0463 -3.03187 80.1784
lradius 39.7313
lwrist 8.70813
lhand -16.3134 -4.29386
lfingers 7.12502
lthumb 9.8978 25.4535
rfemur -26.926 -5.48354 17.6129
rtibia 81.0572
rfoot -8.668 -8.89024
rtoes -11.6535
lfemur -13.8767 -8.32535 -24.9779
ltibia 38.64
lfoot -17.1765 21.9289
ltoes -1.58899
